<!-- icon666.com - MILLIONS OF FREE VECTOR ICONS --><svg version="1.1" id="Capa_1" xmlns="http://www.w3.org/2000/svg" xmlns:xlink="http://www.w3.org/1999/xlink" x="0px" y="0px" viewBox="0 0 511.999 511.999" style="enable-background:new 0 0 511.999 511.999;" xml:space="preserve"><path style="fill:#EF5350;" d="M256,1.034c-141.385,0-256,114.616-256,256c0,130.306,97.356,237.873,223.298,253.93l-0.005-0.001 c0-0.004,0.001-0.007,0.001-0.011l0.003,0.012l125.039-141.483l161.792-81.343c1.235-10.196,1.871-20.576,1.871-31.104 C512,115.65,397.385,1.034,256,1.034z"></path><path style="fill:#D44A47;" d="M510.129,288.139c1.227-10.13,1.861-20.442,1.869-30.9c-11.409-1.371-23.029-2.075-34.576-2.075 c-144.263,0-266.208,107.339-284.536,250.019c9.921,2.516,20.067,4.464,30.412,5.782l-0.005-0.001c0-0.004,0.001-0.007,0.001-0.011 l0.003,0.012l125.039-141.483L510.129,288.139z"></path><path style="fill:#F5F5F5;" d="M223.293,510.964c15.349-126.714,123.274-224.895,254.129-224.895c11.081,0,21.997,0.704,32.707,2.07 L223.293,510.964z"></path><g><path style="fill:#FFFFFF;" d="M153.357,231.943h-11.126l1.734-23.841h32.51c3.756,0,5.635-4.046,5.635-8.236 c0-4.046-1.879-8.236-5.635-8.236h-44.504c-2.168,0-3.323,2.312-3.612,5.924l-3.757,38.001c0,1.3-0.144,2.601-0.144,3.757 c0,4.479,1.59,7.369,7.513,7.369h21.384c9.392,0,15.171,5.201,15.171,16.183v2.745c0,10.982-5.779,16.039-15.316,16.039 c-8.381,0-14.883-3.901-14.883-10.982c0-4.046-1.444-7.225-9.392-7.225c-5.924,0-9.392,1.879-9.392,8.525 c0,13.438,11.992,26.153,34.1,26.153c18.64,0,33.667-8.814,33.667-32.51v-2.745C187.313,240.179,172.43,231.943,153.357,231.943z"></path><path style="fill:#FFFFFF;" d="M230.947,191.63c-19.073,0-33.812,8.958-33.812,33.089v40.313c0,24.13,14.739,33.088,33.812,33.088 s33.956-8.958,33.956-33.088v-40.313C264.903,200.588,250.02,191.63,230.947,191.63z M246.118,265.032 c0,11.415-5.779,16.617-15.171,16.617c-9.536,0-15.027-5.201-15.027-16.617v-40.313c0-11.415,5.491-16.617,15.027-16.617 c9.392,0,15.171,5.201,15.171,16.617V265.032z"></path><path style="fill:#FFFFFF;" d="M374.28,185.85c-2.168,0-4.19,1.012-5.201,3.035l-52.017,105.334 c-0.289,0.722-0.578,1.589-0.578,2.456c0,3.034,2.745,6.357,6.791,6.357c2.457,0,4.769-1.156,5.635-3.178l52.017-104.901 c0.434-0.867,0.578-1.734,0.578-2.6C381.505,188.452,377.604,185.85,374.28,185.85z"></path></g><path style="fill:#DBDBDB;" d="M320.003,302.228c0.942,0.502,2.036,0.806,3.251,0.806c2.457,0,4.769-1.156,5.635-3.178l2.282-4.602 C327.393,297.494,323.668,299.819,320.003,302.228z"></path><g><path style="fill:#FFFFFF;" d="M336.568,231.221v-20.952c0-13.582-8.958-18.639-20.518-18.639 c-11.704,0-20.662,5.057-20.662,18.639v20.952c0,13.582,8.958,18.639,20.662,18.639 C327.61,249.861,336.568,244.802,336.568,231.221z M324.287,231.221c0,5.346-3.178,7.803-8.236,7.803s-8.091-2.456-8.091-7.803 v-20.952c0-5.346,3.034-7.803,8.091-7.803s8.236,2.456,8.236,7.803V231.221z"></path><path style="fill:#FFFFFF;" d="M400.225,280.628v-20.952c0-13.582-8.958-18.639-20.518-18.639 c-11.704,0-20.662,5.057-20.662,18.639v20.952c0,13.582,8.958,18.639,20.662,18.639 C391.267,299.267,400.225,294.21,400.225,280.628z M387.944,280.628c0,5.346-3.178,7.803-8.236,7.803 c-5.058,0-8.091-2.456-8.091-7.803v-20.952c0-5.346,3.034-7.803,8.091-7.803c5.057,0,8.236,2.456,8.236,7.803V280.628z"></path></g><path style="fill:#DBDBDB;" d="M359.049,280.724c0.043,13.508,8.983,18.543,20.658,18.543c11.56,0,20.518-5.057,20.518-18.639 v-14.906c-4.131,1.154-8.225,2.399-12.282,3.731v11.174c0,5.346-3.178,7.803-8.236,7.803c-5.058,0-8.091-2.456-8.091-7.803v-5.247 C367.378,277.065,363.187,278.846,359.049,280.724z"></path></svg>