<!-- icon666.com - MILLIONS OF FREE VECTOR ICONS --><svg id="svg1144" viewBox="0 0 8.4666667 8.4666667" xmlns="http://www.w3.org/2000/svg" xmlns:dc="http://purl.org/dc/elements/1.1/" xmlns:cc="http://creativecommons.org/ns#" xmlns:rdf="http://www.w3.org/1999/02/22-rdf-syntax-ns#" xmlns:svg="http://www.w3.org/2000/svg"><g id="layer2"><path id="path2432" d="m1.58802.529167c-.58174 0-1.05885.47711-1.05885 1.05885v5.290633c0 .58174.47711 1.05885 1.05885 1.05885h5.29063c.58174 0 1.05885-.47711 1.05885-1.05885v-5.290633c0-.58174-.47711-1.05885-1.05885-1.05885z" fill="#549ad4" font-variant-ligatures="normal" font-variant-position="normal" font-variant-caps="normal" font-variant-numeric="normal" font-variant-alternates="normal" font-feature-settings="normal" text-indent="0" text-align="start" text-decoration-line="none" text-decoration-style="solid" text-decoration-color="#000000" text-transform="none" text-orientation="mixed" white-space="normal" shape-padding="0" isolation="auto" mix-blend-mode="normal" solid-color="#000000" solid-opacity="1" vector-effect="none"></path><path id="path2434" d="m2.9745 1.935803c-.46885.164938-.85732.614295-.85732 1.238167v2.119251c0 .623872.38847 1.071162.85732 1.2361.46884.164938 1.01945.09236 1.42575-.236161l1.59783-1.292944c.24715-.199828.35272-.494163.3514-.767912.0009-.273313-.10478-.567995-.3514-.767395l-1.59783-1.290878c-.25394-.205323-.56391-.311453-.8754-.321946-.1869-.006302-.37454.021858-.55035.083718z" fill="#e4eff8" font-variant-ligatures="normal" font-variant-position="normal" font-variant-caps="normal" font-variant-numeric="normal" font-variant-alternates="normal" font-feature-settings="normal" text-indent="0" text-align="start" text-decoration-line="none" text-decoration-style="solid" text-decoration-color="#000000" text-transform="none" text-orientation="mixed" white-space="normal" shape-padding="0" isolation="auto" mix-blend-mode="normal" solid-color="#000000" solid-opacity="1" vector-effect="none"></path><path id="path2436" d="m3.21427 1.876373c.23544.04256.46255.140584.65681.297657l1.59784 1.290877c.24661.1994.3523.494082.3514.767395.001.273749-.10425.568083-.3514.767912l-1.59784 1.292944c-.19414.156972-.42144.253991-.65681.296106.40843.07133.84715-.02215 1.18598-.296106l1.59783-1.292944c.24715-.199828.35272-.494163.3514-.767912.0009-.273313-.10478-.567995-.3514-.767395l-1.59783-1.290878c-.25394-.205323-.56391-.311453-.8754-.321945-.10415-.003501-.20814.006499-.31058.024289z" fill="#c4dcf0" font-variant-ligatures="normal" font-variant-position="normal" font-variant-caps="normal" font-variant-numeric="normal" font-variant-alternates="normal" font-feature-settings="normal" text-indent="0" text-align="start" text-decoration-line="none" text-decoration-style="solid" text-decoration-color="#000000" text-transform="none" text-orientation="mixed" white-space="normal" shape-padding="0" isolation="auto" mix-blend-mode="normal" solid-color="#000000" solid-opacity="1" vector-effect="none"></path><path id="path2438" d="m7.40833.677478v6.058545c0 .372524-.29978.67231-.67231.67231h-6.05854c.18432.314281.5223.529167.91054.529167h5.29063c.58174 0 1.05885-.47711 1.05885-1.05885v-5.290633c0-.388237-.21489-.726218-.52917-.910539z" fill="#3588cb" font-variant-ligatures="normal" font-variant-position="normal" font-variant-caps="normal" font-variant-numeric="normal" font-variant-alternates="normal" font-feature-settings="normal" text-indent="0" text-align="start" text-decoration-line="none" text-decoration-style="solid" text-decoration-color="#000000" text-transform="none" text-orientation="mixed" white-space="normal" shape-padding="0" isolation="auto" mix-blend-mode="normal" solid-color="#000000" solid-opacity="1" vector-effect="none"></path></g></svg>